<?xml version="1.0" encoding="UTF-8" standalone="no"?>
<svg
   xmlns:dc="http://purl.org/dc/elements/1.1/"
   xmlns:cc="http://creativecommons.org/ns#"
   xmlns:rdf="http://www.w3.org/1999/02/22-rdf-syntax-ns#"
   xmlns:svg="http://www.w3.org/2000/svg"
   xmlns="http://www.w3.org/2000/svg"
   viewBox="0 0 705 700"
   height="700"
   width="705"
   xml:space="preserve"
   version="1.1"
   id="svg2"><metadata
     id="metadata8"><rdf:RDF><cc:Work
         rdf:about=""><dc:format>image/svg+xml</dc:format><dc:type
           rdf:resource="http://purl.org/dc/dcmitype/StillImage" /></cc:Work></rdf:RDF></metadata><defs
     id="defs6"><clipPath
       id="clipPath18"
       clipPathUnits="userSpaceOnUse"><path
         id="path20"
         d="M 0,560 564,560 564,0 0,0 0,560 Z" /></clipPath></defs><g
     transform="matrix(1.25,0,0,-1.25,0,700)"
     id="g10"><path
       id="path12"
       style="fill:#382525;fill-opacity:1;fill-rule:nonzero;stroke:none"
       d="m 523.452,36.696 -488.801,0 0,491.746 488.801,0 0,-491.746 z" /><g
       id="g14"><g
         clip-path="url(#clipPath18)"
         id="g16"><g
           transform="translate(352.6664,178.036)"
           id="g22"><path
             id="path24"
             style="fill:#efeaea;fill-opacity:1;fill-rule:nonzero;stroke:none"
             d="m 0,0 c 0,-89.444 -75.145,-161.952 -167.841,-161.952 -92.697,0 -167.842,72.508 -167.842,161.952 0,89.444 75.145,161.952 167.842,161.952 C -75.145,161.952 0,89.444 0,0" /></g><g
           transform="translate(489.5895,374.6003)"
           id="g26"><path
             id="path28"
             style="fill:#8ebe04;fill-opacity:1;fill-rule:nonzero;stroke:none"
             d="m 0,0 c 0,-70.613 -59.325,-127.857 -132.506,-127.857 -73.182,0 -132.507,57.244 -132.507,127.857 0,70.613 59.325,127.857 132.507,127.857 C -59.325,127.857 0,70.613 0,0" /></g><g
           transform="translate(411.9023,333.1601)"
           id="g30"><path
             id="path32"
             style="fill:#000000;fill-opacity:1;fill-rule:nonzero;stroke:none"
             d="m 0,0 c -46.786,21.622 -112.278,12.056 -115.039,11.644 -6.165,-0.933 -10.405,-6.684 -9.472,-12.842 0.928,-6.164 6.687,-10.403 12.843,-9.478 0.611,0.096 61.488,9 102.196,-9.808 1.529,-0.713 3.145,-1.05 4.725,-1.05 4.269,0.008 8.347,2.432 10.256,6.553 C 8.118,-9.323 5.656,-2.616 0,0" /></g><g
           transform="translate(425.0455,373.8028)"
           id="g34"><path
             id="path36"
             style="fill:#000000;fill-opacity:1;fill-rule:nonzero;stroke:none"
             d="m 0,0 c -53.133,24.554 -127.638,13.674 -130.791,13.196 -6.158,-0.933 -10.397,-6.679 -9.47,-12.835 0.926,-6.165 6.677,-10.412 12.835,-9.485 0.705,0.109 71.029,10.322 117.964,-11.366 1.527,-0.712 3.137,-1.044 4.722,-1.044 4.262,0 8.347,2.425 10.256,6.553 C 8.125,-9.323 5.658,-2.614 0,0" /></g><g
           transform="translate(433.891,416.2549)"
           id="g38"><path
             id="path40"
             style="fill:#000000;fill-opacity:1;fill-rule:nonzero;stroke:none"
             d="m 0,0 c -58.695,27.123 -141.12,15.09 -144.603,14.569 -6.164,-0.933 -10.403,-6.679 -9.47,-12.842 0.925,-6.158 6.678,-10.413 12.834,-9.48 0.787,0.119 79.283,11.52 131.769,-12.731 1.527,-0.713 3.145,-1.044 4.725,-1.044 4.267,0 8.345,2.425 10.256,6.555 C 8.125,-9.318 5.658,-2.609 0,0" /></g><g
           transform="translate(251.4587,105.0447)"
           id="g42"><path
             id="path44"
             style="fill:#da041c;fill-opacity:1;fill-rule:nonzero;stroke:none"
             d="m 0,0 c -50.222,0 -67.642,22.645 -76.93,50.815 l -9.288,29.026 c -6.975,21.196 -15.102,37.743 -40.654,37.743 -17.721,0 -35.709,-12.767 -35.709,-48.476 0,-27.887 14.225,-45.307 34.268,-45.307 22.641,0 37.743,16.848 37.743,16.848 l 9.288,-25.263 c 0,0 -15.687,-15.386 -48.493,-15.386 -40.649,0 -63.294,23.801 -63.294,67.947 0,45.857 22.645,72.866 65.324,72.866 38.62,0 58.07,-13.941 70.265,-51.684 l 9.576,-29.026 c 6.971,-21.2 19.166,-36.585 48.493,-36.585 19.738,0 30.187,4.351 30.187,15.102 0,8.415 -4.923,14.513 -19.72,18.005 L -8.699,61.26 c -24.09,5.814 -33.679,18.293 -33.679,38.048 0,31.632 25.547,41.505 51.684,41.505 29.615,0 47.607,-10.733 49.925,-36.869 l -29.027,-3.475 c -1.161,12.479 -8.703,17.704 -22.644,17.704 -12.785,0 -20.611,-5.814 -20.611,-15.691 0,-8.7 3.763,-13.924 16.547,-16.831 L 22.073,81.587 C 47.052,75.773 60.404,63.578 60.404,40.065 60.387,11.038 36.014,0 0,0 m -66.33,238.543 c -92.858,0 -168.145,-75.27 -168.145,-168.145 0,-92.854 75.287,-168.124 168.145,-168.124 92.853,0 168.124,75.27 168.124,168.124 0,92.875 -75.271,168.145 -168.124,168.145" /></g><text
           id="text46"
           style="font-variant:normal;font-weight:normal;font-stretch:normal;font-size:226.95901489px;font-family:Spotifinder;-inkscape-font-specification:Spotifinder;writing-mode:lr-tb;fill:#ece7e7;fill-opacity:1;fill-rule:nonzero;stroke:none"
           transform="matrix(0.68980517,-0.72399505,-0.72399505,-0.68980517,0.9999,400.6141)"><tspan
             id="tspan48"
             y="0"
             x="0">ยง</tspan></text>
</g></g></g></svg>